PathFileType	4	(X/Y/Z)	S01_0019_Gait_markers.trc
DataRate	CameraRate	NumFrames	NumMarkers	Units	OrigDataRate	OrigDataStartFrame	OrigNumFrames
250.000000	250.000000	4	54	mm	250.000000	45	363
Frame#	Time	HEAD_ANT			R_HEAD			L_HEAD			C7			R_BACK			L_BACK			STERNUM			R_ACROMION			R_HUM_PROX			R_HUM_ANT			R_HUM_POST			R_ELBOW_LAT			R_ELBOW_MED			R_FOREARM			R_WIRST_LAT			R_WRITS_MED			R_HAND			L_ACROMION			L_HUM_PROX			L_HUM_ANT			L_HUM_POST			L_ELBOW_LAT			L_ELBOW_MED			L_FOREARM			L_WRIST_LAT			L_WIRST_MED			L_HAND			R_ILIAC			SACRUM			L_ILIAC			R_GTROCH			R_THIGH__1			R_THIGH_2			R_THIGH_3			R_THIGH_4			R_SHANK_1			R_SHANK_2			R_SHANK_3			R_SHANK_4			R_HEEL			R_FOOT_LAT			R_FOOT_MED			L_GTROCH			L_THIGH_1			L_THIGH_2			L_THIGH_3			L_THIGH_4			L_SHANK_1			L_SHANK_2			L_SHANK_3			L_SHANK_4			L_HEEL			L_FOOT_LAT			L_FOOT_MED			
		X1	Y1	Z1	X2	Y2	Z2	X3	Y3	Z3	X4	Y4	Z4	X5	Y5	Z5	X6	Y6	Z6	X7	Y7	Z7	X8	Y8	Z8	X9	Y9	Z9	X10	Y10	Z10	X11	Y11	Z11	X12	Y12	Z12	X13	Y13	Z13	X14	Y14	Z14	X15	Y15	Z15	X16	Y16	Z16	X17	Y17	Z17	X18	Y18	Z18	X19	Y19	Z19	X20	Y20	Z20	X21	Y21	Z21	X22	Y22	Z22	X23	Y23	Z23	X24	Y24	Z24	X25	Y25	Z25	X26	Y26	Z26	X27	Y27	Z27	X28	Y28	Z28	X29	Y29	Z29	X30	Y30	Z30	X31	Y31	Z31	X32	Y32	Z32	X33	Y33	Z33	X34	Y34	Z34	X35	Y35	Z35	X36	Y36	Z36	X37	Y37	Z37	X38	Y38	Z38	X39	Y39	Z39	X40	Y40	Z40	X41	Y41	Z41	X42	Y42	Z42	X43	Y43	Z43	X44	Y44	Z44	X45	Y45	Z45	X46	Y46	Z46	X47	Y47	Z47	X48	Y48	Z48	X49	Y49	Z49	X50	Y50	Z50	X51	Y51	Z51	X52	Y52	Z52	X53	Y53	Z53	X54	Y54	Z54	

46	0.18	243.2308959960938	1706.229858398438	-305.6860961914059	185.3780975341797	1653.0634765625	-229.3234558105465	186.7251586914062	1656.113403320312	-376.9742431640622	51.85220336914062	1483.463012695312	-307.6854858398434	-24.39762687683105	1287.156982421875	-249.7575073242185	-19.35628318786621	1294.140258789062	-385.9236145019528	230.4341888427734	1320.930053710938	-304.0917968749997	123.0718841552734	1430.932006835938	-134.1266326904294	69.494140625	1273.66357421875	-47.84765243530245	125.3166046142578	1185.31689453125	-35.54165649414036	3.926190137863159	1194.02783203125	-40.14762878417942	43.97346496582031	1086.536254882812	-24.50719261169409	25.51631546020508	1080.405639648438	-105.3788833618162	143.4218139648438	900.1968994140625	-19.85192680358867	180.9106292724609	834.2314453125	-62.28440093994122	116.2161102294922	811.8482055664062	-22.31604003906232	186.1125793457031	746.577392578125	-6.916596889495684	136.7716064453125	1440.516479492188	-474.0596313476559	125.1836776733398	1275.724731445313	-571.7343749999998	192.7935791015625	1199.759399414063	-570.4361572265623	72.530029296875	1194.96533203125	-600.083312988281	140.0749053955078	1094.67236328125	-609.3824462890623	86.23544311523438	1081.415283203125	-553.6185913085935	279.3906555175781	946.1317138671876	-575.1746826171873	321.408447265625	897.7981567382814	-518.1495361328123	285.759521484375	862.0132446289064	-580.5606689453123	371.7327575683594	827.0322265625001	-558.3436889648435	116.0674667358398	1034.974365234375	-140.7141113281248	-6.516800880432129	1011.253967285156	-307.4386596679685	109.1211547851562	1032.137573242188	-486.4642028808591	84.88981628417969	884.1942138671875	-126.8239364624021	211.7779083251953	620.5804443359375	-157.0784606933592	259.1162109375	655.2152709960938	-150.090866088867	299.0272827148438	563.6414794921875	-192.7758789062499	237.0058135986328	545.9301147460938	-182.3117218017577	297.5985107421875	331.2943725585938	-186.911880493164	357.2949523925781	328.4126281738282	-197.594268798828	379.7278442382812	247.4127197265626	-215.762222290039	316.831298828125	233.5335845947266	-211.3324432373046	341.6751403808594	32.57379531860358	-298.9967346191406	505.6412048339844	34.04561996459966	-214.8004760742188	552.7494506835938	68.65414428710945	-302.1499633789062	63.61888122558594	929.2754516601564	-486.5754394531248	67.83230590820312	635.1253662109376	-475.0622558593749	22.06220817565918	670.0269165039064	-488.7023315429686	-20.73263740539551	575.9448852539064	-460.4308776855468	41.21530914306641	560.7661743164064	-452.9721069335936	-128.1262054443359	328.4921875000001	-445.2679443359374	-187.61181640625	341.6492919921876	-450.6960449218749	-237.6692199707031	271.7526855468751	-432.6336669921874	-181.6412353515625	243.1098785400391	-420.4649963378906	-374.5686340332031	138.0952148437501	-363.7856750488281	-236.1862335205078	19.43645095825204	-402.888916015625	-203.9854125976562	34.70596313476569	-298.7951354980469	
47	0.184	249.0696411132812	1706.566772460938	-305.1147155761715	191.2370910644531	1653.210327148438	-228.6421508789059	192.4547119140625	1656.15771484375	-376.3089599609372	58.09060287475586	1483.350952148438	-306.8224792480465	-18.10305023193359	1287.109130859375	-249.4020233154294	-12.92374897003174	1294.120483398438	-385.1328124999997	236.9297027587891	1321.082153320312	-303.6425476074216	129.5948028564453	1430.5810546875	-133.4421844482419	76.26939392089844	1273.115234375	-47.37553787231417	132.1047058105469	1184.772094726562	-35.289554595947	10.68089962005615	1193.463500976562	-39.84412765502903	50.91535186767578	1085.629028320312	-24.27301788330054	32.06396102905273	1079.830688476562	-105.3183288574216	149.8386383056641	899.4269409179688	-19.82100296020488	187.0867309570312	833.1434936523438	-62.60074615478497	122.4419250488281	811.0055541992188	-22.39278793334943	192.1927642822266	745.6644287109375	-7.069024562835528	142.9129943847656	1440.664428710938	-473.3305969238278	130.6802673339844	1275.805053710938	-571.277160644531	198.2574462890625	1199.785888671875	-570.2596435546873	78.05899047851562	1195.154418945313	-599.3804931640623	145.2776947021484	1094.824951171875	-608.8692626953123	91.42355346679688	1081.261352539063	-553.2125854492185	284.0606689453125	945.5639648437501	-575.4494628906248	325.8983154296875	897.1648559570314	-518.8857421874998	290.2426452636719	861.4381103515626	-580.7573242187498	375.984130859375	826.1067504882814	-558.986633300781	122.3177947998047	1034.908935546875	-140.1738128662107	-0.05936147645115852	1011.6953125	-307.6691284179685	116.3125686645508	1031.67431640625	-486.1988220214841	91.26718139648438	884.3555297851562	-126.212089538574	218.3697509765625	621.7603149414062	-157.538360595703	265.6398315429688	655.9935302734375	-151.068389892578	305.5743103027344	564.6951904296875	-192.840362548828	243.4392242431641	546.919189453125	-182.3412322998046	303.9978637695312	332.5867309570313	-187.091827392578	363.885986328125	329.2894897460938	-197.6902618408202	385.3110656738281	247.8845214843751	-216.9990539550781	322.2135009765625	234.1750030517579	-211.1705169677734	342.6845397949219	33.36346817016608	-298.3775329589844	507.251953125	31.89748954772954	-215.1243896484375	554.4013671875	66.49774169921882	-303.3118896484375	70.47415161132812	928.6221923828126	-486.3932800292966	75.75002288818359	634.2549438476564	-474.4658203124999	30.17297172546387	669.2967529296876	-489.2188110351561	-12.37544631958008	574.8739624023439	-460.7506408691405	48.96291351318359	559.7296752929689	-452.0215454101561	-122.0141677856445	328.3516540527345	-445.7811584472656	-181.4057922363281	342.6424255371095	-451.7822570800781	-232.3407287597656	273.2673339843751	-433.5881042480468	-176.8818817138672	244.0987701416016	-421.5976257324218	-370.8580322265625	142.2930450439454	-365.2786865234374	-235.7367401123047	19.62916183471689	-403.0078735351562	-203.7058563232422	35.30056381225592	-299.2742004394531	
48	0.188	254.8785858154297	1706.874633789062	-304.5228576660152	197.2677612304688	1653.370361328125	-227.9854888916012	198.1851654052734	1656.52490234375	-375.5458068847653	64.43740081787109	1483.302612304688	-305.9818420410153	-11.7971773147583	1287.09716796875	-249.0638580322263	-6.491493701934814	1294.282348632812	-384.2495117187497	243.2011413574219	1320.981079101562	-303.3943786621091	136.0737609863281	1430.267822265625	-132.7735748291012	83.37537384033203	1272.76123046875	-46.44833755493136	138.9033355712891	1184.314086914062	-35.02471160888646	17.47324371337891	1193.033569335938	-39.44395828247044	58.06172561645508	1084.951904296875	-24.35187149047827	38.74492645263672	1079.438354492188	-105.093193054199	156.3760528564453	898.6035766601562	-19.85027313232402	193.4539642333984	832.476318359375	-62.42631149291974	128.6255798339844	810.3805541992188	-22.35708236694318	198.2600708007812	744.8370361328125	-7.052067756652667	148.9676055908203	1440.899658203125	-472.8168029785153	136.3545379638672	1276.043212890625	-570.7955322265623	203.822021484375	1199.906982421875	-570.206359863281	83.55718994140625	1195.474609375	-598.6593627929685	150.5454711914062	1094.908935546875	-608.212951660156	96.64775085449219	1081.602905273438	-552.6416015624998	288.8804931640625	945.0787353515626	-575.6512451171873	330.8576965332031	896.3303833007814	-519.0177612304685	294.6154174804688	861.0210571289064	-581.3661499023435	380.2107543945312	825.2433471679689	-559.670959472656	128.4925231933594	1034.8896484375	-139.7092285156248	6.32016134262085	1012.1875	-308.0333557128904	123.618537902832	1031.257446289062	-485.9459533691404	97.87460327148438	884.7918090820312	-125.6943054199217	225.1320190429688	623.0567626953125	-157.7943420410155	272.4644775390625	657.387939453125	-151.470748901367	312.139892578125	565.7520751953125	-193.2890167236327	250.1614837646484	548.0397338867188	-182.102081298828	310.5907592773438	333.8908691406251	-186.4539489746093	370.458984375	330.2121887207032	-197.9732360839843	390.906005859375	248.4497375488282	-216.6836242675781	327.7649230957031	235.4560089111329	-210.4946136474609	343.6155090332031	34.02566528320319	-297.5086669921875	508.4334716796875	30.32411003112798	-215.4160919189453	555.9661254882812	64.11359405517585	-304.4939880371094	77.59986877441406	927.9448852539064	-486.3379211425779	84.00739288330078	633.4700927734376	-474.5758972167968	38.02254486083984	668.3522949218751	-489.0612792968748	-4.083590030670166	573.8090820312501	-460.5955200195311	57.85983276367188	559.0542602539064	-453.6159057617186	-115.6933212280273	328.6921997070314	-446.7964477539062	-174.7237243652344	343.838104248047	-452.5541381835937	-226.6764373779297	275.1421813964845	-434.6888427734374	-171.9376373291016	244.6842041015626	-422.8288879394531	-366.7666015625	146.5570831298829	-366.5614929199218	-235.1891784667969	19.82205772399911	-403.1024475097656	-203.3030090332031	35.5665016174317	-299.6107788085938	
49	0.192	260.6382446289062	1707.25927734375	-303.8231506347652	203.3598785400391	1653.76318359375	-227.2207031249996	203.9629058837891	1656.965698242188	-374.7737426757809	70.91310119628906	1483.635498046875	-305.0823364257809	-5.402610301971436	1287.197265625	-248.5332183837888	-0.01432742923498154	1294.391235351562	-383.3683776855466	249.7176666259766	1321.278564453125	-303.0011596679685	142.5802154541016	1430.133666992188	-132.0871276855466	89.76647186279297	1272.381225585938	-46.55376434326143	145.6486511230469	1184.008544921875	-34.86711883544896	24.27352142333984	1192.696655273438	-39.0540924072263	65.40635681152344	1085.08349609375	-24.21190261840796	45.44647216796875	1079.149536132812	-104.9343643188474	162.87255859375	897.9365844726562	-19.70052909851054	199.6075286865234	831.6074829101562	-62.87501144409161	134.7354888916016	809.6265258789062	-22.42968749999982	204.2966766357422	744.0631103515625	-7.259156703948809	155.1523895263672	1441.369750976562	-472.4337463378903	142.1419830322266	1276.366455078125	-570.1715087890623	209.5808868408203	1200.001220703125	-568.8369140624998	88.79543304443359	1195.837158203125	-598.2047729492185	155.7889556884766	1095.05517578125	-607.7841796874998	102.0887603759766	1081.910766601563	-551.9816284179685	293.703125	944.4572753906251	-575.3792724609373	335.1688537597656	895.7982177734376	-519.587951660156	298.8718566894531	860.5071411132814	-581.6081542968748	384.515869140625	824.4310302734376	-560.4857177734373	134.3952789306641	1034.926147460938	-139.4449768066404	12.73308849334717	1012.544494628906	-308.3191833496091	131.0256500244141	1030.896484375	-485.8329467773435	104.3780136108398	885.571533203125	-125.1410522460936	231.9800415039062	624.4931640625	-158.3463897705077	279.3737487792969	658.9723510742188	-151.9205169677733	319.2594909667969	567.191162109375	-193.2185668945311	257.1553039550781	549.3850708007812	-182.0418090820311	317.2489929199219	335.2302246093751	-185.3961486816405	376.5224609375	330.8987121582032	-198.4055786132812	395.9890441894531	248.7762603759766	-218.0614929199218	332.7095336914062	236.4079742431641	-210.2178802490234	344.4267272949219	34.54953002929694	-296.8556823730469	509.6030883789062	29.11008071899419	-216.2815399169922	557.0753784179688	61.17353057861335	-305.7202758789062	84.59986114501953	927.4488525390626	-486.1726989746091	92.33739471435547	632.8699951171876	-474.5590209960936	46.45930862426758	667.6416015625001	-488.894805908203	4.618955135345459	572.7274169921876	-461.0259399414061	66.36800384521484	557.9171752929689	-453.6177368164061	-108.9816436767578	328.7374267578126	-447.5269775390624	-167.8866119384766	344.7580871582032	-453.5264892578124	-220.4944000244141	276.5294494628907	-435.9061889648437	-166.2667083740234	245.9480285644532	-423.8059997558593	-362.2100830078125	150.9080505371095	-367.9202575683593	-234.61279296875	19.99537277221689	-403.1729431152344	-202.6755676269531	35.76296615600592	-300.1973876953125	
